<svg width="316" height="72" viewBox="0 0 316 72" fill="none" xmlns="http://www.w3.org/2000/svg" xmlns:xlink="http://www.w3.org/1999/xlink">
<rect y="14" width="182" height="44" fill="url(#pattern0_27_49)"/>
<path d="M207.168 53C206.808 53 206.532 52.844 206.34 52.532C206.172 52.22 206.172 51.908 206.34 51.596L213.252 39.968C213.396 39.776 213.396 39.596 213.252 39.428L206.556 28.16C206.388 27.824 206.388 27.5 206.556 27.188C206.724 26.876 206.988 26.72 207.348 26.72C207.876 26.72 208.368 26.852 208.824 27.116C209.28 27.356 209.628 27.704 209.868 28.16L215.232 37.664H215.268H215.34L220.74 28.124C221.292 27.188 222.096 26.72 223.152 26.72C223.512 26.72 223.776 26.876 223.944 27.188C224.136 27.5 224.136 27.812 223.944 28.124L217.212 39.428C217.092 39.596 217.092 39.776 217.212 39.968L224.088 51.56C224.304 51.896 224.316 52.22 224.124 52.532C223.932 52.844 223.644 53 223.26 53C222.756 53 222.276 52.868 221.82 52.604C221.364 52.34 221.004 51.98 220.74 51.524L215.232 41.732C215.232 41.708 215.22 41.696 215.196 41.696C215.148 41.696 215.124 41.708 215.124 41.732L209.616 51.56C209.088 52.52 208.272 53 207.168 53Z" fill="black"/>
<g style="mix-blend-mode:multiply">
<rect x="245" width="71" height="72" fill="url(#pattern1_27_49)"/>
</g>
<defs>
<pattern id="pattern0_27_49" patternContentUnits="objectBoundingBox" width="1" height="1">
<use xlink:href="#image0_27_49" transform="matrix(0.000681199 0 0 0.00281769 0 -0.00436587)"/>
</pattern>
<pattern id="pattern1_27_49" patternContentUnits="objectBoundingBox" width="1" height="1">
<use xlink:href="#image1_27_49" transform="matrix(0.00124844 0 0 0.00123153 -0.147316 -0.19335)"/>
</pattern>
</defs>
</svg>
