<?xml version="1.0" encoding="UTF-8"?>
<svg id="Capa_2" data-name="Capa 2" xmlns="http://www.w3.org/2000/svg" viewBox="0 0 388.54 436.46">
  <defs>
    <style>
      .cls-1 {
        fill: #000;
      }

      .cls-1, .cls-2 {
        stroke-width: 0px;
      }

      .cls-2 {
        fill: #fff;
      }
    </style>
  </defs>
  <g id="Capa_1-2" data-name="Capa 1">
    <g>
      <path class="cls-2" d="M202.94,271.86c3.11-9.67,6.95-18.84,13.53-26.6,10.45-12.33,24.19-19.07,39.7-22.24,9.15-1.87,18.51-2.68,27.74-4.15,42.61-6.81,70.65-33.57,79.61-75.63,3.44-16.17,2.84-32.48,2.06-48.79-.09-1.87-1.22-4.35-2.69-5.33-2.2-1.47-3.91.72-5.38,2.38-11.14,12.66-23.55,23.85-37.91,32.77-6.3,3.91-12.67,7.71-19.79,12.03.97-2.31,1.57-3.68,2.11-5.08.59-1.52,1.2-3.04,1.69-4.59,7.04-22.56,6.28-45.08-.54-67.53-1.05-3.44-2.61-4.05-6.25-2.23-16.84,8.44-33.56,17.1-48.99,28.01-1.65,1.17-3.24,2.41-5.28,3.93-.11-1.3-.2-2.01-.23-2.72-.36-9.22-2.15-18.13-5.6-26.7-4.02-9.97-9.39-19.13-16.34-27.35-8.36-9.89-16.73-19.77-25.11-29.64-2.59-3.05-4.47-3.16-6.67-.55-8.42,9.98-16.8,20-25.29,29.92-10.36,12.12-18.38,25.39-20.69,41.48-.73,5.11-1.05,10.28-1.59,15.7-.89-.57-1.62-.99-2.29-1.49-15.79-11.94-33.28-21.05-50.78-30.11-5-2.59-6.99-1.84-8.14,3.63-1.82,8.71-3.65,17.49-4.38,26.33-1.1,13.28-.58,26.57,4.12,39.32,1.04,2.81,2.18,5.58,3.46,8.85-1.18-.42-1.92-.55-2.5-.92-11.38-7.24-23.25-13.84-33.92-22-8.12-6.21-14.66-14.47-22.06-21.66-1.16-1.13-3.18-2.05-4.68-1.89-.93.09-2.3,2.36-2.35,3.7-.7,16.53-1.75,33.08,1.83,49.45,7.75,35.5,28.48,59.72,62.74,72.1,13.53,4.89,27.86,5.75,41.94,7.91,19.73,3.02,36.07,11.75,47.2,28.92,3.96,6.11,7.94,15.43,8.24,19.59-.37-.49-.62-.81-.86-1.15-10.18-14.56-23.32-25.41-39.89-32.04-11.05-4.42-22.71-6.03-34.38-7.33-31.82-3.54-57.78-18.09-79.18-41.43-1.93-2.11-4.09-3.38-6.91-2.22-2.86,1.18-3.52,3.73-3.3,6.5,1.19,15.29,5.64,29.54,14.71,42,22.15,30.41,53.62,38.48,89.08,36.55,10.79-.59,21.54-.99,32.12,1.78,19.32,5.04,32.03,19.89,33.47,39.88.63,8.67.19,17.41.34,26.12.09,5.21,2.91,8.33,7.24,8.27,4.05-.05,6.61-3.29,6.64-8.42.05-8.06-.29-16.14.22-24.17.93-14.61,7.16-26.53,19.41-34.94,10.11-6.94,21.63-8.9,33.57-8.91,11.3,0,22.63.81,33.91.34,17.03-.71,33.16-5.25,47.36-14.98,18.35-12.58,28.78-30.5,33.33-52.01.9-4.24,1.26-8.61,1.56-12.94.17-2.42-1.02-4.46-3.43-5.42-2.41-.96-4.19.25-5.76,1.93-1.86,1.99-3.66,4.03-5.55,5.98-16.8,17.26-36.35,29.75-60.38,34.15-9.52,1.74-19.16,2.83-28.7,4.47-17.09,2.93-32.72,9.19-45.28,21.53-5.55,5.45-10.44,11.57-15.84,17.62ZM48.66,419.56c7.22,4.58,14.68,3.87,19.54-1.56,5.15-5.75,5.37-15.48.48-21.37-5.14-6.2-12.45-6.76-21.49-1.55-.13-1.07-.25-2.08-.36-3.06-8.14,0-10.63.73-10.42,2.76,1.5,1.1,3.77,2.4,3.81,3.78.33,10.53.33,21.08.14,31.62-.02,1.24-1.85,2.48-2.9,3.66-.57.63-1.28,1.14-1.93,1.7.19.3.38.61.57.91,5.64,0,11.28.04,16.91-.04.79-.01,1.57-.62,2.35-.96-.73-.52-1.42-1.39-2.21-1.49-2.98-.38-4.51-1.86-4.48-4.91.03-3.03,0-6.05,0-9.48ZM229.88,409.33l-1-.51c-.63.91-1.52,1.75-1.84,2.76-1.25,4.01-3.65,6.74-7.95,7.15-2.91.28-5.94.51-8.77-.04-1.87-.36-4.78-1.97-4.95-3.32-.61-4.74-.24-9.61-.24-14.93,2.94.45,5.96.21,8.13,1.45,2,1.14,3.09,3.86,4.58,5.89.2-.13.4-.26.6-.39v-16.35c-2.08,1.79-3.14,4.62-5.16,5.75-2.25,1.26-5.36.97-8.53,1.41,0-5.41-.1-10.17.11-14.92.03-.7,1.45-1.87,2.27-1.91,3.25-.15,6.52.02,9.78.14,4.07.15,6.7,2.11,7.75,6.17.2.78,1.14,1.38,2.28,2.7v-11.86h-35.73c-.13.24-.26.48-.4.71.68.53,1.31,1.43,2.06,1.53,2.5.35,3.35,2.02,3.36,4.11.08,10.22.09,20.45,0,30.68-.02,2.27-1.16,3.86-3.72,4.19-.81.1-1.54.92-2.3,1.4.15.29.31.58.46.87h38.28c.31-4.31.61-8.49.91-12.67ZM154.24,422.01c-5.7-4.49-6.87-8.87-2.21-14.35,2.68,4.2,4.98,7.8,7.12,11.17-1.48.97-2.5,1.64-3.51,2.31l.5.89h18.34c-1.28-1.19-1.85-1.82-2.52-2.31-1.35-1-3.1-1.67-4.08-2.95-3.44-4.49-6.62-9.17-10.06-14.01,3.78-3.1,6.42-7.52,11.69-8.53.46-.09.81-.78,1.21-1.2-.47-.34-.93-.95-1.4-.96-4.24-.08-8.49-.08-12.74,0-.42,0-.83.69-1.25,1.06.44.35.82.87,1.32,1.01,1.08.3,2.21.41,3.82.69-3.9,3.88-7.35,7.31-11.2,11.14v-31.06c-4.02.68-7.65,1.24-11.25,1.95-.56.11-1.01.84-1.51,1.29.58.34,1.25.59,1.71,1.05,1.03,1.05,2.77,2.19,2.8,3.33.25,11.09.25,22.2.22,33.3,0,1.99-.92,3.49-3.19,3.93-.72.14-1.29,1.06-1.93,1.62.15.22.3.44.44.66h17.67ZM3.52,418.95c7.36,4.82,14.75,5.06,22.18,1.14,5-2.64,7.24-7.57,6.13-12.88-.87-4.17-3.73-6.87-7.33-8.68-4.26-2.15-8.71-3.9-13.04-5.91-2.55-1.18-4.32-2.95-3.83-6.1.48-3.04,2.59-4.37,5.29-5.04,5.3-1.32,9.93,1.34,12.77,7.15.44.9,1.4,1.55,2.13,2.32.29-.2.57-.41.86-.61-.25-3.92-.49-7.85-.74-11.77l-.72-.12c-.64.85-1.28,1.71-1.7,2.27-2.7-.99-5.06-2.2-7.57-2.71-9.58-1.96-17.49,4.17-16.82,12.91.41,5.43,4.06,8.51,8.45,10.78,3.47,1.79,7.16,3.12,10.72,4.74,2.88,1.31,5,3.24,4.36,6.79-.6,3.32-3,4.92-6.05,5.63-7.48,1.72-13.45-1.76-16.04-9.18-.28-.81-1.01-1.46-1.54-2.18-.34.18-.68.36-1.03.54.31,4.7.62,9.4.93,14.1.32.02.64.03.95.05.51-1.01,1.03-2.02,1.63-3.22ZM320.36,422c.15-.29.3-.58.45-.86-.77-.5-1.57-.96-2.3-1.51-.88-.67-2.36-1.34-2.45-2.15-.71-6.14-1.5-12.38.77-18.36,1.25-3.29,3.67-4.33,7.06-3.84,3.22.47,4.43,2.77,4.57,5.51.27,5.1.2,10.22.21,15.33,0,1.97-.87,3.24-3,3.63-.74.14-1.34,1.03-2.01,1.58.19.23.38.46.57.69h18.05c-.98-1.1-1.45-2.14-2.03-2.2-2.96-.33-3.33-2.31-3.39-4.66-.12-4.78-.01-9.6-.54-14.34-.63-5.57-4.85-8.98-10.44-9.39-4.57-.33-8.26,1.34-11.64,4.82-.41-1.78-.74-3.2-1.13-4.88-3.69,1.13-7.64.87-10.75,3.19,4.75,1.68,5.05,1.89,5.15,5.82.12,5.01.09,10.02.07,15.02-.01,2.28-.75,4-3.41,4.38-.67.1-1.21,1.08-2.42,2.24h18.61ZM94.8,418.1c-.07-.22-.05.57.36.97,1.31,1.28,2.69,3.3,4.16,3.41,2.04.16,4.2-1.12,6.25-1.94.13-.05-.27-1.42-.42-2.18-4.37,1.13-3.35-2.3-3.45-4.35-.22-4.56-.02-9.14-.19-13.71-.11-3.02-.85-6.06-3.95-7.36-5.67-2.38-11.54-2.38-17.04.36-1.39.7-2.2,3.19-2.57,5-.14.69,1.6,2.32,2.7,2.57,2.21.51,3.61-.99,4.41-3.01.12-.3.27-.59.39-.9.83-2.09,2.33-3.12,4.6-2.74,2.59.43,3.58,2.31,3.77,4.65.16,1.96.74,3.97-2.07,5.05-3.94,1.51-7.84,3.28-11.49,5.39-3.73,2.16-4.78,5.54-3.44,8.86,1.3,3.19,4.77,5.33,8.58,4.3,3.27-.89,6.24-2.87,9.37-4.39ZM298.27,404.97c.16-.72.33-1.13.34-1.55.22-7.68-5.1-12.32-13.7-11.97-7.37.3-13.14,4.94-14.86,11.96-1.69,6.91,1.1,13.99,6.8,17.28,6.03,3.47,14.9,2.5,19.72-2.3.63-.63.63-1.9.92-2.88-.32-.13-.63-.27-.95-.4-4.4,3.23-8.99,5.86-14.28,2.23-3.24-2.22-4.67-7.91-3.35-12.36h19.36ZM232.27,392.18c.26.88.32,1.72.56,1.77,3.32.74,4.2,3.5,5.22,6.15,2.58,6.69,5.16,13.37,7.68,20.08.62,1.66,1.26,2.75,3.42,2.66,1.99-.08,3.07-.55,3.89-2.51,2.84-6.82,5.9-13.55,8.88-20.31,1.1-2.48,1.99-5.11,5.05-6,.33-.1.42-1.02.72-1.83h-13.64c1.28,1.15,1.79,1.98,2.45,2.13,2.4.54,2.67,2.19,1.99,3.97-2.04,5.36-4.28,10.64-6.74,16.71-2.25-6.25-4.26-11.71-6.17-17.22-.61-1.76-.3-3.19,1.99-3.56.73-.12,1.37-.83,2.06-1.27-.13-.26-.25-.52-.38-.78h-16.97ZM108.33,393.7l-.48,1.52c6.01.11,5.81,4.1,5.84,7.88.04,4.24-.02,8.49-.04,12.74,0,2.1-.74,3.51-3.07,3.89-.72.12-1.3,1.05-1.94,1.62.2.19.4.38.6.57h18.41c.11-.36.23-.71.34-1.07-.95-.38-2.02-.6-2.82-1.18-1.18-.86-3.09-2-3.07-3,.08-5.17.26-10.42,1.2-15.49.76-4.06,2.15-4.18,5.91-2.5,1.26.56,3.36.53,4.44-.19.95-.64,1.67-2.82,1.3-3.93-.41-1.25-2.02-2.63-3.35-2.94-3.5-.81-6.31.94-8.63,3.48-.66.72-1.27,1.5-2.12,2.51-.39-2.26-.7-4.06-1.08-6.25-3.93.8-7.68,1.57-11.43,2.34ZM370.26,420.54c3.88,2.22,8.05,2.98,12.42,1.39,6.18-2.23,7.87-9.34,3.15-13.91-1.99-1.93-4.6-3.22-6.88-4.87-1.48-1.07-3.18-2.04-4.21-3.46-.66-.91-.74-2.83-.21-3.82.44-.81,2.53-1.59,3.27-1.2,1.78.94,3.21,2.55,4.76,3.93.76.68,1.45,1.43,2.18,2.15.21-.21.42-.42.62-.62v-7.45c-1.9-.26-3.49-.27-4.94-.72-5.09-1.58-9.97.06-12.13,4.23-2.18,4.22-.82,8.52,3.8,11.78,1.42,1,3,1.76,4.44,2.73,1.25.84,2.72,1.62,3.52,2.81.74,1.11,1.28,2.92.87,4.06-.34.95-2.11,1.78-3.34,1.95-3.56.5-5.69-1.26-7.47-5.41-.43-1.01-1.37-1.79-2.07-2.68-.23.18-.47.35-.7.53v10.88c1.32-1.03,2.09-1.63,2.93-2.29ZM363.07,417.48c-4.52,2.39-6.88,1.78-7.03-1.89-.28-6.69-.08-13.41-.08-20.5,1.57,0,2.95,0,4.32,0,2.38,0,2.32-1.25,1.57-3.23h-6.07c0-1.72.13-3.13-.05-4.5-.11-.81-.6-2.08-1.12-2.18-.7-.14-1.68.51-2.36,1.04-2.43,1.9-4.83,3.85-7.16,5.87-.7.6-1.15,1.49-2.05,2.71,2.11.24,3.27.37,4.82.55,0,6.27-.02,12.42,0,18.58.03,7.38,5.94,11.13,12.67,7.96,1.57-.74,3.3-1.71,2.54-4.41ZM259.1,33.74c-5.3,0-9.46,4.09-9.39,9.21.08,5.4,4.21,9.45,9.63,9.44,5.04-.01,9.38-4.09,9.48-8.91.12-5.26-4.36-9.75-9.72-9.74ZM114.74,42.79c-.06,5.3,3.88,9.42,9.11,9.54,5.01.11,9.28-3.93,9.42-8.92.15-5.11-3.99-9.55-9.01-9.67-5.35-.13-9.46,3.78-9.52,9.05Z"/>
      <g>
        <g>
          <g>
            <path class="cls-1" d="M48.66,419.56c0,3.43.02,6.46,0,9.48-.03,3.05,1.5,4.53,4.48,4.91.79.1,1.48.97,2.21,1.49-.78.33-1.56.95-2.35.96-5.64.08-11.28.04-16.91.04-.19-.3-.38-.61-.57-.91.65-.56,1.36-1.07,1.93-1.7,1.06-1.18,2.88-2.42,2.9-3.66.2-10.54.2-21.09-.14-31.62-.04-1.37-2.3-2.68-3.81-3.78-.21-2.03,2.29-2.76,10.42-2.76.12.98.24,1.98.36,3.06,9.04-5.21,16.35-4.65,21.49,1.55,4.89,5.89,4.67,15.62-.48,21.37-4.86,5.43-12.31,6.14-19.54,1.56ZM48.36,406.72c.45,2.46.59,5.12,1.45,7.51,1.25,3.44,4.32,5.05,7.75,4.66,3.57-.4,5.2-3.01,5.43-6,.33-4.27.15-8.64-.35-12.91-.35-2.99-2.28-5.14-5.66-5.31-3.3-.16-6.3,1.66-7.3,4.87-.7,2.24-.87,4.65-1.31,7.18Z"/>
            <path class="cls-1" d="M154.24,422.01h-17.67c-.15-.22-.3-.44-.44-.66.64-.56,1.21-1.48,1.93-1.62,2.27-.44,3.19-1.95,3.19-3.93.03-11.1.03-22.2-.22-33.3-.03-1.14-1.76-2.28-2.8-3.33-.45-.46-1.13-.71-1.71-1.05.5-.44.94-1.18,1.51-1.29,3.6-.7,7.23-1.27,11.25-1.95v31.06c3.85-3.83,7.3-7.26,11.2-11.14-1.61-.27-2.74-.38-3.82-.69-.5-.14-.88-.66-1.32-1.01.42-.37.83-1.05,1.25-1.06,4.24-.08,8.49-.08,12.74,0,.47,0,.93.63,1.4.96-.4.41-.75,1.11-1.21,1.2-5.27,1.01-7.91,5.44-11.69,8.53,3.44,4.84,6.62,9.53,10.06,14.01.98,1.28,2.73,1.94,4.08,2.95.67.5,1.24,1.12,2.52,2.31h-18.34l-.5-.89c1.02-.67,2.03-1.34,3.51-2.31-2.14-3.36-4.44-6.96-7.12-11.17-4.67,5.48-3.49,9.86,2.21,14.35Z"/>
            <path class="cls-1" d="M3.52,418.95c-.61,1.2-1.12,2.21-1.63,3.22-.32-.02-.64-.03-.95-.05-.31-4.7-.62-9.4-.93-14.1.34-.18.68-.36,1.03-.54.52.72,1.25,1.37,1.54,2.18,2.59,7.42,8.57,10.9,16.04,9.18,3.05-.7,5.45-2.3,6.05-5.63.64-3.55-1.48-5.48-4.36-6.79-3.56-1.62-7.26-2.95-10.72-4.74-4.39-2.26-8.03-5.35-8.45-10.78-.67-8.74,7.25-14.88,16.82-12.91,2.51.51,4.87,1.72,7.57,2.71.42-.56,1.06-1.41,1.7-2.27l.72.12c.25,3.92.49,7.85.74,11.77-.29.2-.57.41-.86.61-.72-.77-1.68-1.42-2.13-2.32-2.83-5.81-7.47-8.47-12.77-7.15-2.71.67-4.81,2.01-5.29,5.04-.5,3.15,1.28,4.92,3.83,6.1,4.33,2.01,8.79,3.76,13.04,5.91,3.59,1.81,6.46,4.51,7.33,8.68,1.11,5.31-1.13,10.24-6.13,12.88-7.43,3.92-14.81,3.68-22.18-1.14Z"/>
            <path class="cls-1" d="M94.8,418.1c-3.13,1.52-6.1,3.5-9.37,4.39-3.81,1.04-7.28-1.11-8.58-4.3-1.35-3.32-.3-6.7,3.44-8.86,3.65-2.12,7.54-3.89,11.49-5.39,2.81-1.08,2.23-3.09,2.07-5.05-.19-2.34-1.18-4.22-3.77-4.65-2.26-.38-3.76.65-4.6,2.74-.12.3-.27.59-.39.9-.8,2.01-2.2,3.51-4.41,3.01-1.1-.25-2.84-1.88-2.7-2.57.37-1.81,1.17-4.31,2.57-5,5.49-2.74,11.36-2.74,17.04-.36,3.1,1.3,3.84,4.33,3.95,7.36.17,4.57-.04,9.15.19,13.71.1,2.05-.91,5.48,3.45,4.35.15.76.55,2.13.42,2.18-2.05.82-4.21,2.1-6.25,1.94-1.48-.11-2.86-2.12-4.16-3.41-.41-.4-.43-1.19-.36-.97ZM93.93,406.03c-1.38.62-2.29.95-3.12,1.41-1.33.74-2.67,1.49-3.88,2.39-2.73,2.04-3.37,4.46-1.8,6.37,1.45,1.76,5.01,1.54,6.95-.73.92-1.08,1.5-2.62,1.77-4.05.3-1.57.07-3.23.07-5.4Z"/>
            <path class="cls-1" d="M108.33,393.7c3.75-.77,7.51-1.54,11.43-2.34.38,2.19.69,3.99,1.08,6.25.85-1.01,1.46-1.78,2.12-2.51,2.33-2.54,5.13-4.29,8.63-3.48,1.33.31,2.94,1.69,3.35,2.94.37,1.11-.35,3.29-1.3,3.93-1.07.72-3.18.75-4.44.19-3.77-1.68-5.15-1.57-5.91,2.5-.95,5.07-1.13,10.31-1.2,15.49-.01,1,1.9,2.13,3.07,3,.8.59,1.87.8,2.82,1.18-.11.36-.23.71-.34,1.07h-18.41c-.2-.19-.4-.38-.6-.57.64-.56,1.23-1.5,1.94-1.62,2.33-.39,3.07-1.8,3.07-3.89.02-4.25.07-8.49.04-12.74-.03-3.78.17-7.77-5.84-7.88l.48-1.52Z"/>
          </g>
          <g>
            <path class="cls-1" d="M229.88,409.33c-.3,4.18-.6,8.36-.91,12.67h-38.28c-.15-.29-.31-.58-.46-.87.77-.49,1.49-1.3,2.3-1.4,2.56-.33,3.7-1.92,3.72-4.19.09-10.22.08-20.45,0-30.68-.02-2.09-.87-3.75-3.36-4.11-.74-.1-1.37-1-2.06-1.53.13-.24.26-.48.4-.71h35.73v11.86c-1.15-1.32-2.08-1.91-2.28-2.7-1.05-4.06-3.68-6.01-7.75-6.17-3.26-.12-6.53-.29-9.78-.14-.82.04-2.24,1.21-2.27,1.91-.2,4.75-.11,9.51-.11,14.92,3.17-.44,6.28-.15,8.53-1.41,2.02-1.13,3.08-3.96,5.16-5.75v16.35c-.2.13-.4.26-.6.39-1.49-2.03-2.59-4.75-4.58-5.89-2.17-1.24-5.19-1-8.13-1.45,0,5.32-.37,10.19.24,14.93.17,1.34,3.08,2.95,4.95,3.32,2.82.55,5.86.32,8.77.04,4.3-.41,6.7-3.14,7.95-7.15.32-1.01,1.21-1.84,1.84-2.76l1,.51Z"/>
            <path class="cls-1" d="M320.36,422h-18.61c1.21-1.16,1.76-2.14,2.42-2.24,2.66-.38,3.4-2.1,3.41-4.38.02-5.01.05-10.02-.07-15.02-.1-3.92-.4-4.14-5.15-5.82,3.11-2.32,7.06-2.06,10.75-3.19.39,1.68.72,3.1,1.13,4.88,3.37-3.48,7.07-5.15,11.64-4.82,5.59.4,9.81,3.82,10.44,9.39.53,4.74.42,9.55.54,14.34.06,2.36.43,4.33,3.39,4.66.58.06,1.05,1.1,2.03,2.2h-18.05c-.19-.23-.38-.46-.57-.69.67-.55,1.27-1.44,2.01-1.58,2.13-.39,3-1.66,3-3.63,0-5.11.07-10.23-.21-15.33-.15-2.73-1.35-5.04-4.57-5.51-3.39-.49-5.81.55-7.06,3.84-2.27,5.98-1.48,12.22-.77,18.36.09.8,1.57,1.48,2.45,2.15.73.55,1.53,1.01,2.3,1.51-.15.29-.3.58-.45.86Z"/>
            <path class="cls-1" d="M298.27,404.97h-19.36c-1.32,4.45.11,10.14,3.35,12.36,5.29,3.63,9.88,1,14.28-2.23.32.13.63.27.95.4-.29.98-.29,2.25-.92,2.88-4.82,4.8-13.69,5.77-19.72,2.3-5.7-3.28-8.49-10.37-6.8-17.28,1.72-7.02,7.49-11.66,14.86-11.96,8.6-.35,13.92,4.29,13.7,11.97-.01.42-.18.83-.34,1.55ZM278.94,401.88c3.02,0,5.63.11,8.21-.05,1.16-.07,3.12-.51,3.26-1.11.28-1.2-.14-2.84-.84-3.92-1.41-2.17-3.59-2.66-5.99-1.57-2.7,1.22-3.96,3.47-4.64,6.66Z"/>
            <path class="cls-1" d="M232.27,392.18h16.97c.13.26.25.52.38.78-.68.44-1.32,1.15-2.06,1.27-2.29.37-2.59,1.8-1.99,3.56,1.9,5.51,3.92,10.97,6.17,17.22,2.47-6.07,4.7-11.35,6.74-16.71.68-1.78.41-3.43-1.99-3.97-.66-.15-1.16-.98-2.45-2.13h13.64c-.3.81-.39,1.73-.72,1.83-3.06.89-3.95,3.52-5.05,6-2.99,6.76-6.05,13.49-8.88,20.31-.81,1.96-1.9,2.43-3.89,2.51-2.15.09-2.8-1-3.42-2.66-2.52-6.71-5.1-13.4-7.68-20.08-1.02-2.64-1.9-5.4-5.22-6.15-.24-.05-.3-.9-.56-1.77Z"/>
            <path class="cls-1" d="M370.26,420.54c-.84.66-1.61,1.26-2.93,2.29v-10.88c.23-.18.47-.35.7-.53.7.89,1.64,1.68,2.07,2.68,1.78,4.14,3.9,5.91,7.47,5.41,1.23-.17,3-1,3.34-1.95.4-1.14-.13-2.95-.87-4.06-.8-1.19-2.27-1.97-3.52-2.81-1.44-.97-3.02-1.73-4.44-2.73-4.62-3.25-5.98-7.56-3.8-11.78,2.15-4.17,7.03-5.81,12.13-4.23,1.45.45,3.03.46,4.94.72v7.45c-.21.21-.42.42-.62.62-.72-.72-1.42-1.47-2.18-2.15-1.54-1.38-2.98-2.99-4.76-3.93-.74-.39-2.83.39-3.27,1.2-.54.99-.45,2.91.21,3.82,1.03,1.43,2.73,2.39,4.21,3.46,2.28,1.65,4.88,2.94,6.88,4.87,4.72,4.57,3.03,11.67-3.15,13.91-4.37,1.58-8.54.82-12.42-1.39Z"/>
            <path class="cls-1" d="M363.07,417.48c.76,2.69-.97,3.67-2.54,4.41-6.72,3.17-12.64-.58-12.67-7.96-.02-6.16,0-12.32,0-18.58-1.55-.18-2.71-.31-4.82-.55.91-1.22,1.36-2.1,2.05-2.71,2.33-2.02,4.73-3.97,7.16-5.87.69-.53,1.67-1.19,2.36-1.04.52.11,1.01,1.38,1.12,2.18.18,1.37.05,2.79.05,4.5h6.07c.75,1.97.81,3.23-1.57,3.23-1.38,0-2.76,0-4.32,0,0,7.09-.2,13.8.08,20.5.15,3.67,2.51,4.27,7.03,1.89Z"/>
          </g>
        </g>
        <g>
          <path class="cls-1" d="M202.94,271.86c5.4-6.05,10.29-12.17,15.84-17.62,12.56-12.34,28.19-18.6,45.28-21.53,9.54-1.64,19.18-2.73,28.7-4.47,24.03-4.4,43.58-16.89,60.38-34.15,1.9-1.95,3.7-3.99,5.55-5.98,1.57-1.68,3.35-2.89,5.76-1.93,2.41.96,3.6,3,3.43,5.42-.3,4.33-.66,8.7-1.56,12.94-4.55,21.51-14.98,39.43-33.33,52.01-14.19,9.73-30.32,14.27-47.36,14.98-11.28.47-22.6-.35-33.91-.34-11.94,0-23.46,1.97-33.57,8.91-12.25,8.41-18.48,20.33-19.41,34.94-.51,8.03-.17,16.11-.22,24.17-.03,5.13-2.59,8.37-6.64,8.42-4.33.06-7.15-3.06-7.24-8.27-.15-8.71.29-17.45-.34-26.12-1.45-19.99-14.15-34.85-33.47-39.88-10.59-2.76-21.33-2.36-32.12-1.78-35.46,1.93-66.93-6.15-89.08-36.55-9.08-12.46-13.52-26.7-14.71-42-.22-2.76.44-5.32,3.3-6.5,2.83-1.16,4.98.11,6.91,2.22,21.4,23.34,47.36,37.89,79.18,41.43,11.67,1.3,23.33,2.91,34.38,7.33,16.56,6.63,29.71,17.48,39.89,32.04.24.34.5.66.86,1.15-.3-4.15-4.28-13.48-8.24-19.59-11.13-17.17-27.46-25.89-47.2-28.92-14.08-2.16-28.4-3.02-41.94-7.91-34.25-12.39-54.99-36.6-62.74-72.1-3.57-16.38-2.53-32.93-1.83-49.45.06-1.34,1.42-3.61,2.35-3.7,1.5-.15,3.52.77,4.68,1.89,7.39,7.19,13.94,15.45,22.06,21.66,10.68,8.16,22.55,14.75,33.92,22,.58.37,1.32.5,2.5.92-1.29-3.28-2.43-6.04-3.46-8.85-4.7-12.75-5.23-26.04-4.12-39.32.74-8.84,2.57-17.62,4.38-26.33,1.14-5.47,3.13-6.22,8.14-3.63,17.5,9.06,34.98,18.16,50.78,30.11.67.5,1.4.92,2.29,1.49.53-5.42.85-10.59,1.59-15.7,2.31-16.09,10.33-29.37,20.69-41.48,8.49-9.92,16.87-19.93,25.29-29.92,2.2-2.61,4.08-2.5,6.67.55,8.38,9.87,16.75,19.75,25.11,29.64,6.95,8.22,12.32,17.38,16.34,27.35,3.45,8.57,5.24,17.48,5.6,26.7.03.71.12,1.42.23,2.72,2.04-1.52,3.63-2.76,5.28-3.93,15.43-10.91,32.15-19.57,48.99-28.01,3.65-1.83,5.21-1.22,6.25,2.23,6.82,22.45,7.58,44.96.54,67.53-.49,1.56-1.1,3.07-1.69,4.59-.55,1.39-1.15,2.76-2.11,5.08,7.13-4.33,13.5-8.12,19.79-12.03,14.36-8.92,26.77-20.12,37.91-32.77,1.47-1.67,3.18-3.85,5.38-2.38,1.46.97,2.6,3.46,2.69,5.33.77,16.31,1.38,32.62-2.06,48.79-8.96,42.07-37,68.83-79.61,75.63-9.23,1.48-18.59,2.29-27.74,4.15-15.51,3.17-29.25,9.91-39.7,22.24-6.57,7.75-10.42,16.92-13.53,26.6ZM183.29,238.45c.06-.4.19-.72.14-1.01-3.65-23.76-15.09-41.94-37.66-51.91-5.56-2.46-11.28-4.76-17.15-6.24-17.53-4.42-33.01-12.55-47.01-23.89-6.11-4.95-12.84-9.12-19.5-13.8-.19.84-.31,1.06-.26,1.24.11.42.29.82.46,1.22,7.13,16.4,19.18,27.9,35.67,34.4,10.6,4.18,21.65,7.21,32.42,10.99,18.69,6.56,33.55,18.15,44.41,34.74,3.01,4.59,5.62,9.44,8.47,14.26ZM199.92,239.8c.38-.76.76-1.52,1.12-2.29,9.73-20.71,24.54-36.41,45.91-45.09,10.25-4.16,20.94-7.28,31.47-10.75,15.64-5.15,28.34-14.2,37.25-28.15,2.34-3.66,4.02-7.75,6-11.64-.27-.18-.54-.36-.81-.54-5.1,3.87-10.29,7.63-15.29,11.62-12.41,9.89-25.4,18.71-40.77,23.47-7.48,2.32-15,4.57-22.31,7.36-15.12,5.76-27.31,15.16-35.04,29.73-4.37,8.23-7.05,16.97-7.53,26.29ZM349.75,121.25l-1.01-.25c-3.15,2.6-6.4,5.1-9.41,7.85-1.01.92-1.66,2.41-2.09,3.76-2.22,6.91-3.58,14.2-6.6,20.73-9.48,20.51-25.87,33.43-46.97,40.78-11.5,4-22.99,8.05-34.38,12.34-3.43,1.29-6.54,3.46-9.18,4.89,14.25-2.65,29-5.2,43.66-8.18,13.56-2.76,25.71-8.72,36.34-17.63,14.69-12.32,23.1-28.39,27.24-46.81,1.29-5.72,1.63-11.66,2.4-17.49ZM33.5,121.5c.69,5.64.94,10.44,1.89,15.09,6.22,30.41,23.61,51.65,52.73,62.67,7.05,2.67,14.69,3.9,22.13,5.43,10.29,2.12,20.66,3.9,30.74,5.77-.18-.14-.64-.56-1.17-.86-9.93-5.54-20.36-9.81-31.34-12.83-15.53-4.28-29.96-10.82-41.41-22.5-11.57-11.8-20.11-25.38-22.4-42.2-.11-.8-.41-1.8-.98-2.28-3.04-2.59-6.2-5.06-10.21-8.28ZM219.57,178.14c4.46-2.99,9.33-4.9,12.63-9.82,4.38-6.53,10.24-12.08,15.6-17.93,11.93-13.04,19.62-28.11,21.71-45.74.59-4.95.09-10.03.09-15.09-1.09.06-1.36,0-1.51.1-2.05,1.42-4.27,2.67-6.06,4.37-1.1,1.04-2.16,2.78-2.17,4.22-.08,15.13-5.54,28.26-14.67,39.98-4.6,5.91-9.76,11.39-14.44,17.25-5.32,6.67-9.05,14.22-11.19,22.67ZM163.46,176.49c-.3-1.02-.59-2.05-.91-3.06-3.36-10.68-10.33-19.03-17.56-27.21-12.48-14.1-22.09-29.43-21.59-49.23.02-.7-.15-1.71-.61-2.06-2.72-2.03-5.55-3.91-8.98-6.28,0,4.46-.13,8.12.02,11.76.79,19.53,9.1,35.8,21.92,50.06,5.09,5.66,11.01,10.73,15.25,16.95,3.22,4.71,7.88,6.46,12.46,9.06ZM199.13,197.83c2.17-2.8,4.14-5.23,5.96-7.76.47-.65.63-1.61.67-2.45.79-16.73,7.19-31.2,17.75-43.98,4.71-5.7,9.77-11.14,14.08-17.12,4.4-6.09,7.31-12.98,8.36-21.17-1.08.74-1.75,1.06-2.24,1.56-8.43,8.61-17.35,16.82-25.16,25.97-15.75,18.47-21.8,40.21-19.43,64.94ZM184.29,197.67c.84-16.41-.39-31.81-7.41-46.12-9.12-18.61-23.28-33.04-39.26-45.88,1.37,8.6,4.79,16.26,9.96,23.07,3.48,4.59,7.17,9.04,10.98,13.36,10.37,11.77,17.19,25.26,18.38,40.95.46,6.09,3.93,9.71,7.35,14.62ZM194.32,139.03c.27.22.54.44.81.67,3.25-5.95,7.56-11.57,9.52-17.92,3.75-12.14,3.31-24.64-.19-36.97-4.75-16.75-15.55-29.68-26.57-42.49-.18-.2-.55-.24-.97-.42-1.75,1.89-3.49,3.77-5.5,5.94,23.33,26.64,33.35,56.42,22.9,91.2ZM185.86,30.39c19.4,21.97,36.3,44.96,33.33,76.81,3.08-2.95,5.7-5.35,8.17-7.91.6-.62.97-1.78.91-2.65-.38-5.74-.36-11.58-1.49-17.18-3.32-16.48-12.37-30.01-23.11-42.53-3.79-4.42-7.76-8.68-11.82-13.21-2.22,2.48-4.02,4.49-5.98,6.67ZM238.41,255.99c.11.21.22.41.34.62,4.83-.4,9.65-.92,14.49-1.16,10.22-.5,20.47-.52,30.65-1.32,17.88-1.41,33.97-7.37,46.91-20.28,3.37-3.36,6.28-7.17,9.4-10.78-.25-.24-.49-.47-.74-.71-7.7,6.23-16.39,10.65-25.51,14.33-10.63,4.3-21.93,5.35-33.09,7.25-10.06,1.71-20.09,3.73-29.97,6.25-4.37,1.12-8.34,3.82-12.48,5.8ZM43.48,221.98c-.16.14-.33.29-.49.43,1.05,1.35,2.05,2.74,3.15,4.04,14.63,17.16,33.5,25.97,55.71,27.66,14.12,1.07,28.31,1.39,43.07,2.08-3.12-1.64-5.9-3.19-8.76-4.58-10.78-5.21-22.47-6.6-34.15-7.81-17.56-1.81-34.12-6.57-49.25-15.82-3.14-1.92-6.19-4-9.28-6ZM129.4,162.61c-.41-.45-.81-.92-1.23-1.36-11.49-11.81-19.87-25.46-24.73-41.28-3.53-11.49-3.3-23.16-2.32-34.92.08-.99.04-2.46-.56-2.96-2.54-2.1-5.31-3.93-8.35-6.1-1.79,10.29-2.64,19.93-1.4,29.58,3.25,25.39,13.76,46.05,38.59,57.04ZM254.42,162.92c7.33-2.88,13.36-6.47,18.06-11.85,14.97-17.15,21.59-37.26,20.34-59.91-.26-4.79-1.37-9.53-2.17-14.79-2.33,1.47-3.97,2.75-5.81,3.63-2.76,1.33-3,3.36-2.66,6.12,2.9,23.4-3.56,44.4-16.78,63.52-3.11,4.49-6.96,8.47-10.97,13.29Z"/>
          <path class="cls-1" d="M259.1,33.74c5.36,0,9.84,4.49,9.72,9.74-.11,4.82-4.45,8.9-9.48,8.91-5.42.01-9.55-4.04-9.63-9.44-.08-5.12,4.09-9.21,9.39-9.21Z"/>
          <path class="cls-1" d="M114.74,42.79c.06-5.27,4.17-9.18,9.52-9.05,5.02.12,9.16,4.56,9.01,9.67-.14,4.99-4.41,9.03-9.42,8.92-5.23-.12-9.16-4.24-9.11-9.54Z"/>
        </g>
      </g>
    </g>
  </g>
</svg>